<svg xmlns="http://www.w3.org/2000/svg" width="1200" height="630" viewBox="0 0 1200 630">
  <defs>
    <radialGradient id="bg" cx="22%" cy="18%" r="90%">
      <stop offset="0%" stop-color="#123f7c"/>
      <stop offset="45%" stop-color="#06122d"/>
      <stop offset="100%" stop-color="#030712"/>
    </radialGradient>
    <radialGradient id="mark" cx="32%" cy="24%" r="80%">
      <stop offset="0%" stop-color="#67e8f9"/>
      <stop offset="58%" stop-color="#0d4eb3"/>
      <stop offset="100%" stop-color="#06122d"/>
    </radialGradient>
    <linearGradient id="line" x1="0" x2="1" y1="0" y2="0">
      <stop offset="0%" stop-color="#67e8f9"/>
      <stop offset="100%" stop-color="#60a5fa"/>
    </linearGradient>
  </defs>
  <rect width="1200" height="630" fill="url(#bg)"/>
  <circle cx="995" cy="115" r="240" fill="#4fd7ff" opacity="0.08"/>
  <circle cx="1030" cy="520" r="310" fill="#0d4eb3" opacity="0.16"/>
  <circle cx="205" cy="500" r="230" fill="#67e8f9" opacity="0.06"/>
  <rect x="72" y="72" width="1056" height="486" rx="34" fill="rgba(255,255,255,0.045)" stroke="rgba(255,255,255,0.14)"/>
  <g transform="translate(118 118)">
    <rect width="96" height="96" rx="24" fill="#06122d" stroke="#67e8f9" stroke-opacity="0.45" stroke-width="2"/>
    <circle cx="48" cy="48" r="34" fill="url(#mark)" stroke="#67e8f9" stroke-width="2"/>
    <path fill="#ffffff" d="M27 33h42v8H53v28h-10V41H27z"/>
    <path fill="#ffffff" opacity="0.9" d="M26 60h13v8H26zM57 60h13v8H57z"/>
  </g>
  <text x="238" y="155" fill="#ffffff" font-family="Inter, Arial, sans-serif" font-size="34" font-weight="700" letter-spacing="8">TKN MARKETS</text>
  <rect x="120" y="264" width="144" height="5" rx="2.5" fill="url(#line)"/>
  <text x="120" y="332" fill="#ffffff" font-family="Space Grotesk, Inter, Arial, sans-serif" font-size="76" font-weight="700">Tokenized capital</text>
  <text x="120" y="415" fill="#ffffff" font-family="Space Grotesk, Inter, Arial, sans-serif" font-size="76" font-weight="700">markets infrastructure</text>
  <text x="120" y="488" fill="#a5f3fc" font-family="Inter, Arial, sans-serif" font-size="30" font-weight="500">Issuance, structuring, distribution, and liquidity for private assets.</text>
</svg>
